<?xml version="1.0" encoding="UTF-8"?>
<!DOCTYPE svg PUBLIC "-//W3C//DTD SVG 1.1//EN" "http://www.w3.org/Graphics/SVG/1.1/DTD/svg11.dtd">
<!-- Creator: CorelDRAW 2019 (64-Bit) -->
<svg xmlns="http://www.w3.org/2000/svg" xml:space="preserve" width="400px" height="750px" version="1.1" style="shape-rendering:geometricPrecision; text-rendering:geometricPrecision; image-rendering:optimizeQuality; fill-rule:evenodd; clip-rule:evenodd"
viewBox="0 0 60.361 113.127"
 xmlns:xlink="http://www.w3.org/1999/xlink"
 xmlns:xodm="http://www.corel.com/coreldraw/odm/2003">
 <defs>
  <style type="text/css">
   <![CDATA[
    .fil2 {fill:white}
    .fil1 {fill:url(#id0)}
    .fil0 {fill:url(#id1)}
    .fil3 {fill:url(#id2)}
    .fil4 {fill:url(#id3)}
    .fil8 {fill:url(#id4)}
    .fil10 {fill:url(#id5)}
    .fil6 {fill:url(#id6)}
    .fil9 {fill:url(#id7)}
    .fil7 {fill:url(#id8)}
    .fil11 {fill:url(#id9)}
    .fil5 {fill:url(#id10)}
   ]]>
  </style>
  <linearGradient id="id0" gradientUnits="userSpaceOnUse" x1="28.571" y1="30.407" x2="28.571" y2="131.411">
   <stop offset="0" style="stop-opacity:1; stop-color:#6F48BB"/>
   <stop offset="0.619608" style="stop-opacity:1; stop-color:#5132A7"/>
   <stop offset="1" style="stop-opacity:1; stop-color:#331B93"/>
  </linearGradient>
  <linearGradient id="id1" gradientUnits="userSpaceOnUse" xlink:href="#id0" x1="28.571" y1="30.407" x2="28.571" y2="131.411">
  </linearGradient>
  <linearGradient id="id2" gradientUnits="userSpaceOnUse" x1="38.405" y1="49.598" x2="37.938" y2="95.832">
   <stop offset="0" style="stop-opacity:1; stop-color:#45289F"/>
   <stop offset="0.458824" style="stop-opacity:1; stop-color:#5A38AD"/>
   <stop offset="1" style="stop-opacity:1; stop-color:#6F48BB"/>
  </linearGradient>
  <linearGradient id="id3" gradientUnits="userSpaceOnUse" xlink:href="#id2" x1="38.405" y1="49.598" x2="37.938" y2="95.832">
  </linearGradient>
  <linearGradient id="id4" gradientUnits="userSpaceOnUse" xlink:href="#id2" x1="38.405" y1="49.598" x2="37.938" y2="95.833">
  </linearGradient>
  <linearGradient id="id5" gradientUnits="userSpaceOnUse" xlink:href="#id2" x1="38.405" y1="49.598" x2="37.938" y2="95.832">
  </linearGradient>
  <linearGradient id="id6" gradientUnits="userSpaceOnUse" xlink:href="#id2" x1="38.405" y1="49.598" x2="37.938" y2="95.832">
  </linearGradient>
  <linearGradient id="id7" gradientUnits="userSpaceOnUse" xlink:href="#id2" x1="38.405" y1="49.598" x2="37.938" y2="95.832">
  </linearGradient>
  <linearGradient id="id8" gradientUnits="userSpaceOnUse" xlink:href="#id2" x1="38.405" y1="49.598" x2="37.938" y2="95.833">
  </linearGradient>
  <linearGradient id="id9" gradientUnits="userSpaceOnUse" xlink:href="#id2" x1="38.405" y1="49.598" x2="37.938" y2="95.832">
  </linearGradient>
  <linearGradient id="id10" gradientUnits="userSpaceOnUse" xlink:href="#id2" x1="38.405" y1="49.598" x2="37.938" y2="95.832">
  </linearGradient>
 </defs>
 <g id="Layer_x0020_1">
  <metadata id="CorelCorpID_0Corel-Layer"/>
  <g id="_2846944844624">
   <path class="fil0" d="M53.883 0.001l-47.4 0c-0.034,0 -0.07,-0.001 -0.104,-0.001 -3.474,0 -6.31,2.781 -6.379,6.253l0 100.611c0.062,3.477 2.901,6.263 6.379,6.263 0.034,0 0.071,-0.001 0.104,-0.001l47.4 0c0.031,0 0.066,0.001 0.099,0.001 3.476,0 6.313,-2.783 6.379,-6.258l0 -100.61c-0.066,-3.476 -2.903,-6.259 -6.379,-6.259 -0.033,0 -0.068,0.001 -0.1,0.001l0.001 0zm4.574 105.724c-0.058,3.063 -2.56,5.517 -5.624,5.517 -0.031,0 -0.064,0 -0.094,0l-45.093 0c-0.03,0 -0.063,0 -0.094,0 -3.064,0 -5.566,-2.454 -5.624,-5.517l0 -98.333c0.056,-3.062 2.556,-5.517 5.619,-5.517 0.033,0 0.067,0.001 0.099,0.001l45.068 0c0.041,-0.001 0.083,-0.002 0.124,-0.002 3.063,0 5.564,2.456 5.619,5.518l0 98.333z"/>
   <path class="fil1" d="M16.833 0.536l25.472 0c1.848,0 3.347,1.499 3.347,3.347l0 0.388c0,1.848 -1.499,3.347 -3.347,3.347l-25.472 0c-1.848,0 -3.347,-1.499 -3.347,-3.347l0 -0.388c0,-1.848 1.499,-3.347 3.347,-3.347z"/>
   <ellipse class="fil2" cx="20.755" cy="4.379" rx="1.163" ry="1.158"/>
   <ellipse class="fil2" cx="16.671" cy="4.305" rx="1.693" ry="1.688"/>
   <path class="fil2" d="M24.573 3.569l10.115 0c0.407,0 0.736,0.329 0.736,0.736l0 0c0,0.406 -0.329,0.736 -0.736,0.736l-10.115 0c-0.406,0 -0.736,-0.33 -0.736,-0.736l0 0c0,-0.407 0.33,-0.736 0.736,-0.736z"/>
   <ellipse class="fil2" cx="40.312" cy="4.379" rx="1.163" ry="1.158"/>
  </g>
  <g id="_2846944853648">
   <g id="XMLID_806_">
    <g id="XMLID_386_">
     <path id="XMLID_389_" class="fil3" d="M56.281 58.984c-0.471,-4.732 -2.585,-9.194 -5.954,-12.563 -2.879,-2.879 -6.402,-4.728 -10.11,-5.551l0 -2.601c1.514,-0.376 2.64,-1.747 2.64,-3.376 0,-1.919 -1.561,-3.48 -3.48,-3.48l-7.369 0c-1.919,0 -3.48,1.561 -3.48,3.48 0,1.629 1.126,3 2.64,3.376l0 2.608c-3.696,0.826 -7.208,2.674 -10.079,5.544 -0.628,0.629 -1.208,1.288 -1.738,1.972 -0.025,-0.001 -0.051,-0.003 -0.077,-0.003l-7.294 0c-0.565,0 -1.023,0.458 -1.023,1.023 0,0.565 0.458,1.024 1.023,1.024l5.979 0c-0.751,1.256 -1.356,2.575 -1.817,3.933l-11.139 0c-0.565,0 -1.023,0.459 -1.023,1.024 0,0.565 0.458,1.023 1.023,1.023l10.561 0c-0.295,1.295 -0.464,2.613 -0.508,3.934l-4.526 0c-0.565,0 -1.023,0.459 -1.023,1.024 0,0.565 0.458,1.023 1.023,1.023l4.559 0c0.086,1.325 0.299,2.643 0.639,3.934l-6.631 0c-0.565,0 -1.023,0.459 -1.023,1.024 0,0.565 0.458,1.023 1.023,1.023l7.284 0c1.004,2.656 2.573,5.146 4.708,7.281 3.372,3.372 7.838,5.486 12.575,5.954 0.676,0.067 1.353,0.1 2.029,0.1 3.994,0 7.937,-1.156 11.283,-3.334 0.473,-0.309 0.607,-0.943 0.299,-1.417 -0.309,-0.473 -0.943,-0.607 -1.416,-0.299 -7.324,4.769 -17.133,3.738 -23.323,-2.452 -7.263,-7.263 -7.263,-19.08 0,-26.343 7.263,-7.263 19.081,-7.263 26.344,0 6.181,6.182 7.218,15.982 2.465,23.302 -0.308,0.474 -0.173,1.108 0.301,1.416 0.474,0.308 1.108,0.173 1.416,-0.301 2.539,-3.912 3.682,-8.635 3.219,-13.302zm-25.706 -24.091c0,-0.79 0.643,-1.433 1.433,-1.433l7.369 0c0.79,0 1.433,0.643 1.433,1.433 0,0.79 -0.643,1.433 -1.433,1.433l-0.184 0 -7.002 0 -0.183 0c-0.79,0 -1.433,-0.643 -1.433,-1.433zm2.64 5.632l0 -2.152 4.955 0 0 2.149c-1.645,-0.196 -3.31,-0.195 -4.955,0.003z"/>
     <path id="XMLID_391_" class="fil4" d="M49.604 73.912c-0.27,0 -0.533,0.109 -0.724,0.3 -0.191,0.19 -0.3,0.454 -0.3,0.723 0,0.27 0.109,0.534 0.3,0.724 0.191,0.191 0.454,0.3 0.724,0.3 0.269,0 0.532,-0.109 0.723,-0.3 0.191,-0.19 0.3,-0.454 0.3,-0.724 0,-0.269 -0.109,-0.533 -0.3,-0.723 -0.191,-0.191 -0.454,-0.3 -0.723,-0.3z"/>
     <path id="XMLID_394_" class="fil5" d="M35.708 45.163c-8.755,0 -15.877,7.123 -15.877,15.877 0,8.755 7.122,15.878 15.877,15.878 8.755,0 15.877,-7.123 15.877,-15.878 0,-8.754 -7.122,-15.877 -15.877,-15.877zm0 29.708c-7.626,0 -13.83,-6.205 -13.83,-13.831 0,-7.626 6.204,-13.83 13.83,-13.83 7.626,0 13.83,6.204 13.83,13.83 0,7.626 -6.204,13.831 -13.83,13.831z"/>
     <path id="XMLID_397_" class="fil6" d="M42.182 53.119l-5.069 5.069c-0.424,-0.21 -0.901,-0.328 -1.405,-0.328 -0.504,0 -0.981,0.118 -1.405,0.328l-2.269 -2.269c-0.399,-0.399 -1.047,-0.399 -1.447,0 -0.4,0.4 -0.4,1.048 0,1.448l2.269 2.268c-0.21,0.424 -0.328,0.901 -0.328,1.405 0,1.754 1.426,3.181 3.18,3.181 1.754,0 3.18,-1.427 3.18,-3.181 0,-0.504 -0.118,-0.981 -0.328,-1.405l4.921 -4.92 0 0 0.149 -0.149c0.399,-0.4 0.399,-1.048 0,-1.447 -0.4,-0.4 -1.048,-0.4 -1.448,0zm-6.474 9.055c-0.625,0 -1.133,-0.509 -1.133,-1.134 0,-0.625 0.508,-1.133 1.133,-1.133 0.625,0 1.133,0.508 1.133,1.133 0,0.625 -0.508,1.134 -1.133,1.134z"/>
     <path id="XMLID_398_" class="fil7" d="M46.651 60.029l-0.948 0c-0.565,0 -1.024,0.459 -1.024,1.024 0,0.565 0.459,1.023 1.024,1.023l0.948 0c0.565,0 1.024,-0.458 1.024,-1.023 0,-0.566 -0.459,-1.024 -1.024,-1.024z"/>
     <path id="XMLID_399_" class="fil8" d="M25.713 60.004l-0.948 0c-0.565,0 -1.024,0.459 -1.024,1.024 0,0.565 0.459,1.023 1.024,1.023l0.948 0c0.565,0 1.024,-0.458 1.024,-1.023 0,-0.565 -0.459,-1.024 -1.024,-1.024z"/>
     <path id="XMLID_400_" class="fil9" d="M35.721 52.069c0.565,0 1.023,-0.458 1.023,-1.024l0 -0.948c0,-0.565 -0.458,-1.023 -1.023,-1.023 -0.566,0 -1.024,0.458 -1.024,1.023l0 0.948c0,0.566 0.458,1.024 1.024,1.024z"/>
     <path id="XMLID_424_" class="fil10" d="M35.696 70.012c-0.566,0 -1.024,0.458 -1.024,1.023l0 0.948c0,0.566 0.458,1.024 1.024,1.024 0.565,0 1.023,-0.458 1.023,-1.024l0 -0.948c0,-0.565 -0.458,-1.023 -1.023,-1.023z"/>
     <path id="XMLID_425_" class="fil11" d="M5.003 66.332c-0.269,0 -0.533,0.109 -0.723,0.3 -0.191,0.19 -0.3,0.454 -0.3,0.723 0,0.271 0.109,0.534 0.3,0.724 0.19,0.19 0.454,0.3 0.723,0.3 0.269,0 0.533,-0.11 0.724,-0.3 0.19,-0.19 0.3,-0.454 0.3,-0.724 0,-0.269 -0.11,-0.533 -0.3,-0.723 -0.191,-0.191 -0.455,-0.3 -0.724,-0.3z"/>
    </g>
   </g>
  </g>
 </g>
</svg>
