<?xml version="1.0" encoding="UTF-8"?>
<!DOCTYPE svg PUBLIC "-//W3C//DTD SVG 1.1//EN" "http://www.w3.org/Graphics/SVG/1.1/DTD/svg11.dtd">
<!-- Creator: CorelDRAW 2019 (64-Bit) -->
<svg xmlns="http://www.w3.org/2000/svg" xml:space="preserve" width="400px" height="750px" version="1.1" style="shape-rendering:geometricPrecision; text-rendering:geometricPrecision; image-rendering:optimizeQuality; fill-rule:evenodd; clip-rule:evenodd"
viewBox="0 0 33.967 63.66"
 xmlns:xlink="http://www.w3.org/1999/xlink"
 xmlns:xodm="http://www.corel.com/coreldraw/odm/2003"
 enable-background="new 0 0 512 512">
 <defs>
  <style type="text/css">
   <![CDATA[
    .fil14 {fill:white}
    .fil13 {fill:url(#id0)}
    .fil1 {fill:url(#id1)}
    .fil4 {fill:url(#id2)}
    .fil8 {fill:url(#id3)}
    .fil2 {fill:url(#id4)}
    .fil6 {fill:url(#id5)}
    .fil12 {fill:url(#id6)}
    .fil11 {fill:url(#id7)}
    .fil10 {fill:url(#id8)}
    .fil9 {fill:url(#id9)}
    .fil5 {fill:url(#id10)}
    .fil0 {fill:url(#id11)}
    .fil3 {fill:url(#id12)}
    .fil7 {fill:url(#id13)}
   ]]>
  </style>
  <linearGradient id="id0" gradientUnits="userSpaceOnUse" x1="16.078" y1="17.111" x2="16.078" y2="73.949">
   <stop offset="0" style="stop-opacity:1; stop-color:#6F48BB"/>
   <stop offset="0.619608" style="stop-opacity:1; stop-color:#5132A7"/>
   <stop offset="1" style="stop-opacity:1; stop-color:#331B93"/>
  </linearGradient>
  <linearGradient id="id1" gradientUnits="userSpaceOnUse" x1="17.054" y1="20.728" x2="16.941" y2="52.204">
   <stop offset="0" style="stop-opacity:1; stop-color:#43279E"/>
   <stop offset="1" style="stop-opacity:1; stop-color:#6F48BB"/>
  </linearGradient>
  <linearGradient id="id2" gradientUnits="userSpaceOnUse" xlink:href="#id1" x1="17.054" y1="20.728" x2="16.941" y2="52.204">
  </linearGradient>
  <linearGradient id="id3" gradientUnits="userSpaceOnUse" xlink:href="#id1" x1="17.054" y1="20.728" x2="16.941" y2="52.204">
  </linearGradient>
  <linearGradient id="id4" gradientUnits="userSpaceOnUse" xlink:href="#id1" x1="17.054" y1="20.728" x2="16.941" y2="52.204">
  </linearGradient>
  <linearGradient id="id5" gradientUnits="userSpaceOnUse" xlink:href="#id1" x1="17.054" y1="20.728" x2="16.941" y2="52.204">
  </linearGradient>
  <linearGradient id="id6" gradientUnits="userSpaceOnUse" xlink:href="#id0" x1="16.078" y1="17.111" x2="16.078" y2="73.949">
  </linearGradient>
  <linearGradient id="id7" gradientUnits="userSpaceOnUse" xlink:href="#id1" x1="17.054" y1="20.728" x2="16.941" y2="52.204">
  </linearGradient>
  <linearGradient id="id8" gradientUnits="userSpaceOnUse" xlink:href="#id1" x1="17.054" y1="20.728" x2="16.941" y2="52.204">
  </linearGradient>
  <linearGradient id="id9" gradientUnits="userSpaceOnUse" xlink:href="#id1" x1="17.054" y1="20.729" x2="16.941" y2="52.204">
  </linearGradient>
  <linearGradient id="id10" gradientUnits="userSpaceOnUse" xlink:href="#id1" x1="17.054" y1="20.728" x2="16.941" y2="52.204">
  </linearGradient>
  <linearGradient id="id11" gradientUnits="userSpaceOnUse" xlink:href="#id1" x1="17.054" y1="20.728" x2="16.941" y2="52.204">
  </linearGradient>
  <linearGradient id="id12" gradientUnits="userSpaceOnUse" xlink:href="#id1" x1="17.054" y1="20.728" x2="16.941" y2="52.204">
  </linearGradient>
  <linearGradient id="id13" gradientUnits="userSpaceOnUse" xlink:href="#id1" x1="17.054" y1="20.728" x2="16.941" y2="52.204">
  </linearGradient>
 </defs>
 <g id="Layer_x0020_1">
  <metadata id="CorelCorpID_0Corel-Layer"/>
  <g id="_2847101217040">
   <g>
    <g>
     <path class="fil0" d="M15.787 20.088l12.96 0c0.233,0 0.422,-0.189 0.422,-0.422 0,-0.233 -0.189,-0.422 -0.422,-0.422l-12.96 0c-0.233,0 -0.422,0.189 -0.422,0.422 0,0.233 0.189,0.421 0.422,0.421l0 0.001z"/>
     <path class="fil1" d="M28.747 21.335l-12.96 0c-0.233,0 -0.422,0.189 -0.422,0.422 0,0.233 0.189,0.422 0.422,0.422l12.96 0c0.233,0 0.422,-0.189 0.422,-0.422 0,-0.233 -0.189,-0.422 -0.422,-0.422z"/>
     <path class="fil2" d="M15.787 24.27l8.794 0c0.233,0 0.422,-0.189 0.422,-0.422 0,-0.233 -0.189,-0.422 -0.422,-0.422l-8.794 0c-0.233,0 -0.422,0.189 -0.422,0.422 0,0.233 0.189,0.422 0.422,0.422z"/>
     <path class="fil3" d="M28.747 29.317l-12.96 0c-0.233,0 -0.422,0.189 -0.422,0.422 0,0.233 0.189,0.421 0.422,0.421l12.96 0c0.233,0 0.422,-0.188 0.422,-0.421 0,-0.233 -0.189,-0.422 -0.422,-0.422z"/>
     <path class="fil4" d="M28.747 31.408l-12.96 0c-0.233,0 -0.422,0.189 -0.422,0.422 0,0.233 0.189,0.422 0.422,0.422l12.96 0c0.233,0 0.422,-0.189 0.422,-0.422 0,-0.233 -0.189,-0.422 -0.422,-0.422z"/>
     <path class="fil5" d="M15.787 34.343l8.794 0c0.233,0 0.422,-0.189 0.422,-0.422 0,-0.233 -0.189,-0.422 -0.422,-0.422l-8.794 0c-0.233,0 -0.422,0.189 -0.422,0.422 0,0.233 0.189,0.422 0.422,0.422z"/>
     <path class="fil6" d="M13.761 38.189c-0.238,-0.209 -0.543,-0.312 -0.858,-0.292 -0.316,0.02 -0.606,0.162 -0.815,0.4l-0.214 0.243c-0.747,-0.609 -1.699,-0.976 -2.737,-0.976 -2.392,0 -4.339,1.946 -4.339,4.339 0,2.392 1.947,4.339 4.339,4.339 2.393,0 4.34,-1.947 4.34,-4.339 0,-0.471 -0.078,-0.924 -0.217,-1.349l0.608 -0.692c0.209,-0.238 0.313,-0.542 0.293,-0.858 -0.02,-0.316 -0.162,-0.605 -0.4,-0.815l0 0zm-4.624 7.21c-1.927,0 -3.495,-1.569 -3.495,-3.496 0,-1.928 1.568,-3.496 3.495,-3.496 0.824,0 1.582,0.287 2.18,0.766l-1.786 2.031 -0.641 -0.748c-0.206,-0.24 -0.493,-0.386 -0.809,-0.41 -0.315,-0.025 -0.621,0.075 -0.862,0.282 -0.496,0.425 -0.554,1.174 -0.128,1.671l1.529 1.784c0.223,0.26 0.548,0.411 0.891,0.413 0.004,0 0.007,0 0.009,0 0.34,0 0.665,-0.146 0.89,-0.402l2.174 -2.472c0.032,0.189 0.049,0.383 0.049,0.581 0,1.927 -1.568,3.496 -3.496,3.496l0 0zm4.098 -6.094l-3.459 3.932c-0.064,0.073 -0.157,0.116 -0.255,0.116 -0.001,0 -0.002,0 -0.004,0 -0.099,-0.001 -0.192,-0.044 -0.257,-0.119l-1.529 -1.784c-0.123,-0.143 -0.106,-0.359 0.037,-0.482 0.063,-0.054 0.14,-0.082 0.222,-0.082 0.009,0 0.018,0 0.027,0.001 0.091,0.007 0.173,0.049 0.233,0.118l0.957 1.116c0.079,0.093 0.195,0.147 0.317,0.148 0.124,0.002 0.239,-0.052 0.32,-0.143l2.878 -3.272c0.06,-0.069 0.143,-0.11 0.234,-0.116 0.091,-0.006 0.179,0.025 0.248,0.085 0.068,0.06 0.109,0.143 0.115,0.234 0.006,0.092 -0.024,0.179 -0.084,0.248l0 0z"/>
     <path class="fil7" d="M28.747 39.39l-12.96 0c-0.233,0 -0.422,0.189 -0.422,0.422 0,0.232 0.189,0.421 0.422,0.421l12.96 0c0.233,0 0.422,-0.189 0.422,-0.421 0,-0.233 -0.189,-0.422 -0.422,-0.422z"/>
     <path class="fil8" d="M28.747 41.481l-12.96 0c-0.233,0 -0.422,0.189 -0.422,0.422 0,0.233 0.189,0.421 0.422,0.421l12.96 0c0.233,0 0.422,-0.188 0.422,-0.421 0,-0.233 -0.189,-0.422 -0.422,-0.422z"/>
     <path class="fil9" d="M24.581 43.572l-8.794 0c-0.233,0 -0.422,0.189 -0.422,0.422 0,0.233 0.189,0.422 0.422,0.422l8.794 0c0.233,0 0.422,-0.189 0.422,-0.422 0,-0.233 -0.189,-0.422 -0.422,-0.422l0 0z"/>
     <path class="fil10" d="M13.761 18.044c-0.238,-0.209 -0.543,-0.313 -0.858,-0.293 -0.316,0.02 -0.606,0.162 -0.815,0.4l-0.213 0.243c-0.747,-0.61 -1.7,-0.976 -2.738,-0.976 -1.074,0 -2.105,0.395 -2.903,1.114 -0.173,0.156 -0.187,0.422 -0.031,0.596 0.156,0.173 0.423,0.187 0.596,0.031 0.642,-0.579 1.473,-0.898 2.338,-0.898 0.824,0 1.582,0.288 2.18,0.767l-1.786 2.03 -0.641 -0.748c-0.206,-0.24 -0.493,-0.386 -0.809,-0.41 -0.315,-0.025 -0.621,0.076 -0.862,0.282 -0.496,0.425 -0.554,1.175 -0.128,1.671l1.529 1.784c0.223,0.26 0.548,0.411 0.891,0.414 0.004,0 0.007,0 0.009,0 0.34,0 0.664,-0.147 0.889,-0.403l2.175 -2.472c0.032,0.189 0.049,0.383 0.049,0.581 0,1.927 -1.568,3.496 -3.496,3.496 -1.927,0 -3.495,-1.569 -3.495,-3.496 0,-0.413 0.071,-0.818 0.212,-1.202 0.08,-0.219 -0.033,-0.461 -0.251,-0.541 -0.219,-0.08 -0.461,0.032 -0.541,0.251 -0.175,0.477 -0.264,0.979 -0.264,1.492 0,2.393 1.947,4.339 4.339,4.339 2.393,0 4.34,-1.946 4.34,-4.339 0,-0.471 -0.077,-0.925 -0.216,-1.35l0.607 -0.691c0.209,-0.237 0.313,-0.542 0.293,-0.858 -0.02,-0.316 -0.162,-0.605 -0.4,-0.814l0 0zm-0.526 1.115l-3.459 3.932c-0.064,0.074 -0.157,0.116 -0.255,0.116 -0.001,0 -0.002,0 -0.004,0 -0.099,0 -0.192,-0.044 -0.257,-0.119l-1.529 -1.784c-0.123,-0.143 -0.106,-0.359 0.037,-0.482 0.063,-0.053 0.14,-0.082 0.222,-0.082 0.009,0 0.018,0 0.027,0.001 0.091,0.007 0.173,0.049 0.233,0.118l0.957 1.117c0.079,0.092 0.195,0.146 0.317,0.147 0.124,-0.001 0.239,-0.051 0.32,-0.143l2.878 -3.272c0.06,-0.069 0.143,-0.11 0.234,-0.115 0.091,-0.006 0.179,0.024 0.248,0.084 0.068,0.06 0.109,0.144 0.115,0.235 0.006,0.091 -0.024,0.179 -0.084,0.247l0 0z"/>
     <path class="fil11" d="M13.761 28.117c-0.238,-0.209 -0.543,-0.313 -0.858,-0.293 -0.316,0.02 -0.606,0.162 -0.815,0.4l-0.214 0.243c-0.747,-0.609 -1.699,-0.976 -2.737,-0.976 -2.392,0 -4.339,1.946 -4.339,4.339 0,2.393 1.947,4.339 4.339,4.339 2.393,0 4.339,-1.946 4.339,-4.339 0,-0.471 -0.076,-0.925 -0.216,-1.35l0.608 -0.691c0.209,-0.238 0.313,-0.542 0.293,-0.858 -0.02,-0.316 -0.162,-0.605 -0.4,-0.814l0 0zm-0.526 1.115l-1.794 2.04c-0.154,0.174 -0.137,0.441 0.038,0.595 0.175,0.154 0.441,0.137 0.595,-0.038l0.51 -0.58c0.032,0.189 0.049,0.383 0.049,0.581 0,1.927 -1.568,3.496 -3.496,3.496 -1.927,0 -3.495,-1.569 -3.495,-3.496 0,-1.928 1.568,-3.496 3.495,-3.496 0.824,0 1.582,0.288 2.18,0.766l-1.786 2.031 -0.641 -0.748c-0.206,-0.24 -0.493,-0.386 -0.809,-0.41 -0.315,-0.025 -0.621,0.076 -0.862,0.282 -0.496,0.425 -0.554,1.175 -0.128,1.671l1.529 1.784c0.223,0.26 0.548,0.411 0.891,0.413 0.004,0.001 0.007,0.001 0.009,0.001 0.34,0 0.664,-0.147 0.889,-0.403l0.392 -0.445c0.154,-0.175 0.137,-0.441 -0.038,-0.595 -0.175,-0.154 -0.441,-0.137 -0.595,0.038l-0.392 0.445c-0.064,0.073 -0.157,0.116 -0.255,0.116 -0.001,0 -0.002,0 -0.004,0 -0.099,-0.001 -0.192,-0.044 -0.257,-0.119l-1.529 -1.784c-0.123,-0.143 -0.106,-0.359 0.037,-0.482 0.069,-0.06 0.158,-0.089 0.249,-0.081 0.091,0.007 0.173,0.049 0.233,0.118l0.957 1.116c0.079,0.093 0.195,0.147 0.317,0.148l0.003 0c0.121,0 0.237,-0.052 0.317,-0.143l2.878 -3.272c0.06,-0.069 0.143,-0.11 0.234,-0.116 0.091,-0.006 0.179,0.025 0.248,0.085 0.068,0.06 0.109,0.143 0.115,0.235 0.006,0.091 -0.024,0.179 -0.084,0.247z"/>
    </g>
   </g>
  </g>
  <g id="_2847101224272">
   <path class="fil12" d="M30.321 0l-26.673 0c-0.019,0 -0.039,0 -0.059,0 -1.955,0 -3.55,1.565 -3.589,3.519l0 56.616c0.035,1.957 1.632,3.525 3.589,3.525 0.02,0 0.04,-0.001 0.059,-0.001l26.673 0c0.018,0 0.038,0.001 0.056,0.001 1.956,0 3.553,-1.566 3.59,-3.522l0 -56.616c-0.037,-1.956 -1.634,-3.522 -3.59,-3.522 -0.018,0 -0.038,0 -0.056,0l0 0zm2.574 59.495c-0.032,1.723 -1.44,3.104 -3.164,3.104 -0.018,0 -0.036,0 -0.053,0l-25.375 0c-0.017,0 -0.036,0 -0.053,0 -1.724,0 -3.133,-1.381 -3.165,-3.105l0 -55.334c0.031,-1.724 1.438,-3.105 3.162,-3.105 0.018,0 0.037,0 0.055,0l25.362 0c0.023,0 0.046,0 0.07,0 1.723,0 3.13,1.381 3.161,3.105l0 55.335z"/>
   <path class="fil13" d="M9.473 0.301l14.333 0c1.04,0 1.884,0.844 1.884,1.884l0 0.218c0,1.04 -0.844,1.884 -1.884,1.884l-14.333 0c-1.04,0 -1.884,-0.844 -1.884,-1.884l0 -0.218c0,-1.04 0.844,-1.884 1.884,-1.884z"/>
   <ellipse class="fil14" cx="11.679" cy="2.464" rx="0.655" ry="0.652"/>
   <ellipse class="fil14" cx="9.381" cy="2.423" rx="0.953" ry="0.95"/>
   <path class="fil14" d="M13.828 2.008l5.692 0c0.229,0 0.414,0.186 0.414,0.415l0 0c0,0.228 -0.185,0.414 -0.414,0.414l-5.692 0c-0.229,0 -0.414,-0.186 -0.414,-0.414l0 0c0,-0.229 0.185,-0.415 0.414,-0.415z"/>
   <ellipse class="fil14" cx="22.685" cy="2.464" rx="0.655" ry="0.652"/>
  </g>
 </g>
</svg>
