<?xml version="1.0" encoding="UTF-8"?>
<!DOCTYPE svg PUBLIC "-//W3C//DTD SVG 1.1//EN" "http://www.w3.org/Graphics/SVG/1.1/DTD/svg11.dtd">
<!-- Creator: CorelDRAW 2019 (64-Bit) -->
<svg xmlns="http://www.w3.org/2000/svg" xml:space="preserve" width="400px" height="750px" version="1.1" style="shape-rendering:geometricPrecision; text-rendering:geometricPrecision; image-rendering:optimizeQuality; fill-rule:evenodd; clip-rule:evenodd"
viewBox="0 0 42.967 80.527"
 xmlns:xlink="http://www.w3.org/1999/xlink"
 xmlns:xodm="http://www.corel.com/coreldraw/odm/2003"
 enable-background="new 0 0 64 64">
 <defs>
  <style type="text/css">
   <![CDATA[
    .fil2 {fill:white}
    .fil7 {fill:url(#id0)}
    .fil1 {fill:url(#id1)}
    .fil5 {fill:url(#id2)}
    .fil8 {fill:url(#id3)}
    .fil4 {fill:url(#id4)}
    .fil3 {fill:url(#id5)}
    .fil0 {fill:url(#id6)}
    .fil6 {fill:url(#id7)}
    .fil9 {fill:url(#id8)}
    .fil11 {fill:url(#id9)}
    .fil10 {fill:url(#id10)}
   ]]>
  </style>
  <linearGradient id="id0" gradientUnits="userSpaceOnUse" x1="20.713" y1="29.785" x2="20.57" y2="66.609">
   <stop offset="0" style="stop-opacity:1; stop-color:#43279E"/>
   <stop offset="1" style="stop-opacity:1; stop-color:#6F48BB"/>
  </linearGradient>
  <linearGradient id="id1" gradientUnits="userSpaceOnUse" x1="20.338" y1="21.645" x2="20.338" y2="93.543">
   <stop offset="0" style="stop-opacity:1; stop-color:#6F48BB"/>
   <stop offset="0.619608" style="stop-opacity:1; stop-color:#5132A7"/>
   <stop offset="1" style="stop-opacity:1; stop-color:#331B93"/>
  </linearGradient>
  <linearGradient id="id2" gradientUnits="userSpaceOnUse" xlink:href="#id0" x1="20.713" y1="29.785" x2="20.57" y2="66.609">
  </linearGradient>
  <linearGradient id="id3" gradientUnits="userSpaceOnUse" xlink:href="#id0" x1="20.713" y1="29.785" x2="20.57" y2="66.609">
  </linearGradient>
  <linearGradient id="id4" gradientUnits="userSpaceOnUse" xlink:href="#id0" x1="20.713" y1="29.785" x2="20.57" y2="66.61">
  </linearGradient>
  <linearGradient id="id5" gradientUnits="userSpaceOnUse" xlink:href="#id0" x1="20.713" y1="29.785" x2="20.57" y2="66.609">
  </linearGradient>
  <linearGradient id="id6" gradientUnits="userSpaceOnUse" xlink:href="#id1" x1="20.338" y1="21.645" x2="20.338" y2="93.543">
  </linearGradient>
  <linearGradient id="id7" gradientUnits="userSpaceOnUse" xlink:href="#id0" x1="20.713" y1="29.785" x2="20.57" y2="66.609">
  </linearGradient>
  <linearGradient id="id8" gradientUnits="userSpaceOnUse" xlink:href="#id0" x1="20.713" y1="29.786" x2="20.57" y2="66.609">
  </linearGradient>
  <linearGradient id="id9" gradientUnits="userSpaceOnUse" xlink:href="#id0" x1="20.713" y1="29.785" x2="20.57" y2="66.61">
  </linearGradient>
  <linearGradient id="id10" gradientUnits="userSpaceOnUse" xlink:href="#id0" x1="20.713" y1="29.786" x2="20.57" y2="66.609">
  </linearGradient>
 </defs>
 <g id="Layer_x0020_1">
  <metadata id="CorelCorpID_0Corel-Layer"/>
  <g id="_2847095655120">
   <path class="fil0" d="M38.355 0.001l-33.74 0c-0.024,0 -0.05,-0.001 -0.075,-0.001 -2.472,0 -4.491,1.979 -4.54,4.451l0 71.618c0.044,2.475 2.065,4.458 4.541,4.458 0.024,0 0.05,0 0.074,0l33.74 0c0.023,0 0.048,0 0.071,0 2.474,0 4.494,-1.981 4.541,-4.454l0 -71.618c-0.047,-2.474 -2.067,-4.455 -4.541,-4.455 -0.023,0 -0.048,0.001 -0.071,0.001l0 0zm3.256 75.257c-0.041,2.181 -1.822,3.928 -4.003,3.928 -0.022,0 -0.045,-0.001 -0.067,-0.001l-32.098 0c-0.022,0 -0.045,0.001 -0.067,0.001 -2.181,0 -3.962,-1.747 -4.003,-3.928l0 -69.996c0.039,-2.18 1.819,-3.927 3.999,-3.927 0.024,0 0.048,0 0.07,0l32.082 0c0.029,0 0.059,-0.001 0.088,-0.001 2.18,0 3.96,1.748 3.999,3.928l0 69.996z"/>
   <path class="fil1" d="M11.982 0.381l18.132 0c1.316,0 2.383,1.067 2.383,2.383l0 0.276c0,1.316 -1.067,2.383 -2.383,2.383l-18.132 0c-1.315,0 -2.382,-1.067 -2.382,-2.383l0 -0.276c0,-1.316 1.067,-2.383 2.383,-2.383z"/>
   <ellipse class="fil2" cx="14.774" cy="3.117" rx="0.828" ry="0.824"/>
   <ellipse class="fil2" cx="11.867" cy="3.064" rx="1.205" ry="1.202"/>
   <path class="fil2" d="M17.492 2.54l7.2 0c0.289,0 0.524,0.235 0.524,0.524l0 0c0,0.29 -0.235,0.524 -0.524,0.524l-7.2 0c-0.289,0 -0.524,-0.234 -0.524,-0.524l0 0c0,-0.289 0.235,-0.524 0.524,-0.524z"/>
   <ellipse class="fil2" cx="28.696" cy="3.117" rx="0.828" ry="0.824"/>
  </g>
  <g id="_2847095669968">
   <g>
    <polygon class="fil3" points="16.993,26.791 21.983,26.791 21.983,27.789 16.993,27.789 "/>
    <polygon class="fil4" points="16.993,28.787 21.983,28.787 21.983,29.785 16.993,29.785 "/>
    <polygon class="fil5" points="18.989,30.783 19.987,30.783 19.987,31.781 18.989,31.781 "/>
    <polygon class="fil6" points="16.993,30.783 17.991,30.783 17.991,31.781 16.993,31.781 "/>
    <polygon class="fil7" points="20.985,30.783 21.983,30.783 21.983,31.781 20.985,31.781 "/>
    <path class="fil8" d="M24.538 42.406l1.643 -1.643 7.581 0c1.219,0 2.241,-0.915 2.376,-2.127l0.799 -7.194c0.01,-0.087 0.015,-0.176 0.015,-0.265 0,-1.317 -1.072,-2.39 -2.39,-2.39l-10.747 0 0.149 -1.337c0.009,-0.087 0.014,-0.176 0.014,-0.264 0,-1.318 -1.071,-2.39 -2.39,-2.39l-13.183 -0.001c-1.318,0 -2.39,1.073 -2.39,2.391 0,0.088 0.005,0.176 0.015,0.264l0.799 7.195c0.135,1.212 1.157,2.126 2.376,2.126l4.794 0 0 3.992 -1.996 0 0 -1.996 -5.988 0 0 4.989 5.988 0 0 -1.995 1.996 0 0 4.989 -1.996 0 0 -1.996 -5.988 0 0 4.99 5.988 0 0 -1.996 1.996 0 0 4.99 -1.996 0 0 -1.996 -5.988 0 0 4.99 5.988 0 0 -1.996 2.994 0 0 -5.988 5.489 0 0 1.497 2.494 0 0 1.996 -2.494 0 0 3.992 5.987 0 0 -1.497 3.992 0 0 1.497 5.988 0 0 -3.992 -2.495 0 0 -1.996 2.495 0 0 -3.992 -5.988 0 0 1.497 -3.992 0 0 -1.497 -2.495 0 0 -2.535c0.21,-0.054 0.406,-0.158 0.56,-0.312zm-13.533 0.352l-3.992 0 0 -2.993 3.992 0 0 2.993zm0 5.988l-3.992 0 0 -2.994 3.992 0 0 2.994zm0 5.988l-3.992 0 0 -2.994 3.992 0 0 2.994zm17.963 -21.456c0,-0.825 0.672,-1.497 1.497,-1.497 0.825,0 1.497,0.672 1.497,1.497 0,0.825 -0.672,1.497 -1.497,1.497 -0.825,0 -1.497,-0.672 -1.497,-1.497zm4.491 6.487l-5.988 0 0 -0.998c0,-1.651 1.343,-2.994 2.994,-2.994 1.651,0 2.994,1.343 2.994,2.994l0 0.998zm-9.755 -9.98l10.858 0c0.767,0 1.392,0.624 1.392,1.392 0,0.051 -0.003,0.103 -0.009,0.154l-0.8 7.195c-0.05,0.455 -0.317,0.835 -0.689,1.05l0 -0.809c0,-1.613 -0.963,-3.002 -2.342,-3.631 0.515,-0.458 0.846,-1.117 0.846,-1.858 0,-1.376 -1.119,-2.495 -2.495,-2.495 -1.376,0 -2.495,1.119 -2.495,2.495 0,0.741 0.331,1.4 0.846,1.858 -1.38,0.629 -2.343,2.018 -2.343,3.631l0 0.998 -0.705 0 -1.936 1.935c-0.119,0.119 -0.353,0.023 -0.353,-0.146l0 -1.789 -1.3 0c-0.711,0 -1.306,-0.533 -1.384,-1.239l-0.195 -1.755 0.189 0c1.219,0 2.241,-0.914 2.376,-2.126l0.539 -4.86zm-15.883 4.749l-0.799 -7.195c-0.006,-0.051 -0.009,-0.103 -0.009,-0.153 0,-0.768 0.625,-1.393 1.392,-1.393l13.183 0c0.768,0 1.392,0.625 1.392,1.393 0,0.05 -0.003,0.102 -0.009,0.153l-0.799 7.195c-0.078,0.706 -0.673,1.239 -1.384,1.239l-2.298 0 0 1.789c0,0.169 -0.235,0.265 -0.353,0.146l-1.643 -1.643 0 -1.29c0,-1.613 -0.963,-3.002 -2.343,-3.631 0.515,-0.458 0.846,-1.117 0.846,-1.858 0,-1.375 -1.119,-2.495 -2.495,-2.495 -1.376,0 -2.495,1.12 -2.495,2.495 0,0.741 0.332,1.4 0.846,1.858 -1.38,0.629 -2.343,2.018 -2.343,3.631l0 0.809c-0.372,-0.214 -0.638,-0.595 -0.689,-1.05l0 0zm3.184 -5.248c0,-0.825 0.672,-1.497 1.497,-1.497 0.825,0 1.497,0.672 1.497,1.497 0,0.826 -0.672,1.497 -1.497,1.497 -0.825,0 -1.497,-0.671 -1.497,-1.497zm4.491 6.487l-5.988 0 0 -0.998c0,-1.651 1.343,-2.994 2.994,-2.994 1.651,0 2.994,1.343 2.994,2.994l0 0.998zm9.979 18.462l-3.991 0 0 -1.996 3.991 0 0 1.996zm9.98 0l-3.992 0 0 -1.996 3.992 0 0 1.996zm-3.992 -7.984l3.992 0 0 1.996 -3.992 0 0 -1.996zm-0.998 1.497l0 1.497 2.495 0 0 1.996 -2.495 0 0 1.497 -3.992 0 0 -1.497 -2.495 0 0 -1.996 2.495 0 0 -1.497 3.992 0zm-4.99 0.499l-3.991 0 0 -1.996 3.991 0 0 1.996zm-4.989 -2.994l0 1.497 -5.489 0 0 -9.979 0.791 0 1.643 1.642c0.224,0.225 0.534,0.354 0.852,0.354 0.664,0 1.205,-0.541 1.205,-1.205l0 -0.791 0.107 0 0.207 1.865c0.135,1.212 1.157,2.127 2.377,2.127l0.302 0 0 0.791c0,0.4 0.199,0.752 0.499,0.971l0 2.728 -2.494 0z"/>
    <polygon class="fil9" points="8.011,52.738 10.007,52.738 10.007,53.736 8.011,53.736 "/>
    <polygon class="fil10" points="8.011,46.75 10.007,46.75 10.007,47.748 8.011,47.748 "/>
    <polygon class="fil11" points="8.011,40.763 10.007,40.763 10.007,41.761 8.011,41.761 "/>
   </g>
  </g>
 </g>
</svg>
